<svg xmlns="http://www.w3.org/2000/svg" viewBox="0 0 170.5 141.19"><defs><style>.logo-1{fill:#c10230;fill-rule:evenodd;}.logo-2{fill:#fff;}</style></defs><path class="logo-1" d="M77.2.17c20.93,2.66,39.6,13.34,57.5,20,17.26,7.88,33.76,11.77,35.62,28.58,1.56,15.27-6.58,33.39-24.43,53.4-17.4,19-44.5,40-70.56,39-26-.44-48.27-9.35-60.24-17.37C2.85,115.59-1.62,99.69.52,76.92,2.73,54,17.9,34.62,30.71,20.75,44.64,7,56.2-1.32,77.2.17Z" transform="translate(-0.01 0)"/><path class="logo-2" d="M35.05,59.23c-7.21,0-7.73,3.13-7.73,8.3V84.91H32.2V67.78c0-3.84.52-4.52,3.43-4.52,3.4,0,7,1.19,7,1.83V84.91h4.9V63.57c0-1.81-6.29-4.32-12.49-4.32" transform="translate(-0.01 0)"/><path class="logo-2" d="M69.62,62c-1.79-1.56-4.43-2.35-7.85-2.35A25.51,25.51,0,0,0,58,60a27.28,27.28,0,0,0-3.11.66l-.21.06-.72,4.18.51-.12c1-.24,2-.45,3.17-.62a16.62,16.62,0,0,1,6.09.06,5.24,5.24,0,0,1,2,1A4.17,4.17,0,0,1,66.93,67a8,8,0,0,1,.43,2.82v1.06a6.27,6.27,0,0,0-2.24-1.11,15.25,15.25,0,0,0-3.81-.49,17.67,17.67,0,0,0-3.77.38,7.88,7.88,0,0,0-3,1.3,6.11,6.11,0,0,0-2,2.42A8.86,8.86,0,0,0,51.87,77v.55c0,2.59.75,4.52,2.24,5.75s3.64,1.83,6.45,1.83a12.47,12.47,0,0,0,4.28-.69,6.42,6.42,0,0,0,2.69-1.81l.29,2h4.47V69c0-3.07-.92-5.43-2.73-7M61.71,81a6,6,0,0,1-3.81-.93,3.58,3.58,0,0,1-1-2.86v-.37A3.54,3.54,0,0,1,58,74a5.7,5.7,0,0,1,3.61-.92h.79a6.41,6.41,0,0,1,3.87.92,3.06,3.06,0,0,1,1.13,2.57v.37A4.06,4.06,0,0,1,67,78.82a3.66,3.66,0,0,1-1.14,1.24,4.86,4.86,0,0,1-1.75.71,11.14,11.14,0,0,1-2.3.22" transform="translate(-0.01 0)"/><path class="logo-2" d="M92.27,60.4a9.11,9.11,0,0,0-3.11-.48,9.61,9.61,0,0,0-4.38.91,7.8,7.8,0,0,0-2.49,2L82,60.22H77.47V84.71h5.16V71.41A11.45,11.45,0,0,1,83.07,68a5.17,5.17,0,0,1,1.21-2.12,4.19,4.19,0,0,1,1.82-1.09,8.61,8.61,0,0,1,3.81-.22c.5.07,1,.16,1.34.24l.33.08,1-4.36Z" transform="translate(-0.01 0)"/><path class="logo-2" d="M114.87,65.88a8.49,8.49,0,0,0-1.7-3.19,8.2,8.2,0,0,0-3.08-2.19,11.82,11.82,0,0,0-4.63-.82,12.83,12.83,0,0,0-4.9.86A8.6,8.6,0,0,0,97.2,63a10,10,0,0,0-2,3.77,17.59,17.59,0,0,0-.61,4.79v1.89a19.59,19.59,0,0,0,.58,5,9,9,0,0,0,2,3.79,8.63,8.63,0,0,0,3.65,2.31,17.29,17.29,0,0,0,5.53.78,28.73,28.73,0,0,0,3.82-.26,15.65,15.65,0,0,0,3.16-.69l.19-.06.72-4-.5.11c-.69.15-1.57.3-2.62.46a23.83,23.83,0,0,1-3.48.22,16.74,16.74,0,0,1-3.93-.38,5,5,0,0,1-2.34-1.2,4.81,4.81,0,0,1-1.22-2.16,13.22,13.22,0,0,1-.41-3h12.88a3.09,3.09,0,0,0,2.2-.59,3.36,3.36,0,0,0,.58-2.34V69.66a13.42,13.42,0,0,0-.52-3.78m-9.59-2.1c1.91,0,3.26.48,4,1.44a6.84,6.84,0,0,1,1.17,4.3v.86H99.68c.06-2.34.53-4,1.38-5a5.3,5.3,0,0,1,4.22-1.56" transform="translate(-0.01 0)"/><path class="logo-2" d="M134.82,80.67l-1.33.2a10.7,10.7,0,0,1-1.79.12,4.27,4.27,0,0,1-3.25-1,5.41,5.41,0,0,1-.93-3.58v-12h7l.68-4.18h-7.67V53.59l-5.11.74v5.9h-4l-.67,4.18h4.72V76.3a15.55,15.55,0,0,0,.47,4.13,6.44,6.44,0,0,0,1.48,2.8,5.84,5.84,0,0,0,2.52,1.52,12,12,0,0,0,3.47.45,14.67,14.67,0,0,0,2.19-.16,9.48,9.48,0,0,0,1.89-.46l.19-.07.67-3.89Z" transform="translate(-0.01 0)"/><path class="logo-2" d="M136.76,48.59a2.52,2.52,0,1,1-2.45,2.59V51.1a2.48,2.48,0,0,1,2.43-2.51Zm0,4.61a2.1,2.1,0,1,0-2-2.2v.1a2.06,2.06,0,0,0,2,2.13h0Zm0-1.79h-.3v.91H136V49.83h1a.76.76,0,0,1,.78.76v.06a.71.71,0,0,1-.52.73l.54.94h-.56Zm.14-.4a.33.33,0,0,0,.34-.32v0a.38.38,0,0,0-.34-.42h-.44V51Z" transform="translate(-0.01 0)"/><path class="logo-2" d="M72.4,92l1.91-.85H75v5.27H73.81v-4c-.35.15-.84.3-1.12.42Z" transform="translate(-0.01 0)"/><path class="logo-2" d="M78.86,94.16h0a1.47,1.47,0,0,1-1.17.53A1.83,1.83,0,0,1,75.76,93v0a1.87,1.87,0,0,1,1.92-1.82h.15c1.36,0,2.21,1.06,2.21,2.59s-.78,2.84-2.33,2.84a2.41,2.41,0,0,1-1.83-.78l.68-.62a1.54,1.54,0,0,0,1.11.43A1.35,1.35,0,0,0,78.86,94.16ZM78.79,93a1,1,0,1,0-.7.7A1,1,0,0,0,78.79,93Z" transform="translate(-0.01 0)"/><path class="logo-2" d="M80.2,91.23h4v.69L81.8,96.5H80.52l2.33-4.35H80.2Z" transform="translate(-0.01 0)"/><path class="logo-2" d="M86.6,96.52a2.74,2.74,0,1,1,2.33-3.09,2.34,2.34,0,0,1,0,.38,2.44,2.44,0,0,1-2.15,2.7Zm0-4.51c-.76,0-1.22.8-1.22,1.8s.46,1.8,1.22,1.8,1.24-.8,1.24-1.8S87.36,92,86.6,92Z" transform="translate(-0.01 0)"/></svg>