<svg xmlns="http://www.w3.org/2000/svg" viewBox="0 0 74 74"><path d="M10.57,60.93a2,2,0,0,0,1.08-.32,2,2,0,0,0,.6-2.76,32.95,32.95,0,0,1,.42-36.34l.61,4.3a2,2,0,0,0,2,1.72l.29,0a2,2,0,0,0,1.7-2.26L16,16.3a.29.29,0,0,1,0-.09c0-.07,0-.14,0-.21a1.34,1.34,0,0,0-.07-.18.89.89,0,0,0-.08-.17l-.1-.18a1.71,1.71,0,0,0-.11-.14l-.15-.16-.06-.07-.07,0a1.18,1.18,0,0,0-.18-.13l-.14-.09-.21-.1-.14-.05-.23-.06-.15,0h-.5L4.77,15.86a2,2,0,0,0,.56,4l4-.57A37,37,0,0,0,8.88,60,2,2,0,0,0,10.57,60.93Z" transform="translate(-3 -3)"/><path d="M60.61,68.35a2,2,0,0,0-2.76-.6A33,33,0,0,1,41.73,73a32.71,32.71,0,0,1-20.22-5.63l4.3-.61a2,2,0,1,0-.56-4L16.3,64l-.1,0-.2,0-.18.07-.17.08-.18.1-.14.11-.16.15-.07.06,0,.07a1.09,1.09,0,0,0-.13.17s-.07.1-.1.16l-.08.17c0,.07-.05.13-.07.19a1.16,1.16,0,0,0,0,.18,1.38,1.38,0,0,0,0,.2,1.09,1.09,0,0,0,0,.18,1.7,1.7,0,0,0,0,.22v.08l1.26,8.93a2,2,0,0,0,2,1.73l.28,0a2,2,0,0,0,1.7-2.26l-.57-4A36.66,36.66,0,0,0,40,77c.66,0,1.32,0,2,0A37,37,0,0,0,60,71.11,2,2,0,0,0,60.61,68.35Z" transform="translate(-3 -3)"/><path d="M77,38.06A37,37,0,0,0,71.12,20a2,2,0,0,0-3.37,2.16A33.15,33.15,0,0,1,73,38.27a32.78,32.78,0,0,1-5.63,20.22l-.61-4.3a2,2,0,1,0-4,.56l1.27,9a.38.38,0,0,0,0,.1,1.16,1.16,0,0,0,0,.18,1.46,1.46,0,0,0,.07.19l.06.15a.76.76,0,0,0,.12.19.57.57,0,0,0,.08.13,1.07,1.07,0,0,0,.18.19l.06.07,0,0,.21.15s0,.05.08.06a1.83,1.83,0,0,0,.28.14l.13,0,.26.07.25,0H66l.28,0,8.93-1.26a2,2,0,1,0-.55-4l-4,.57A36.75,36.75,0,0,0,77,38.06Z" transform="translate(-3 -3)"/><path d="M63.76,16l.19,0,.21-.07.16-.07a1.32,1.32,0,0,0,.2-.12l.14-.1.18-.16.07-.06,0-.07.12-.17a.86.86,0,0,0,.1-.16c0-.06,0-.12.08-.17s0-.12.07-.19a1.16,1.16,0,0,0,0-.18,1.38,1.38,0,0,0,0-.2,1.09,1.09,0,0,0,0-.18,1.7,1.7,0,0,0,0-.22v-.08L64.14,4.78a2,2,0,1,0-4,.55l.57,4A37,37,0,0,0,20,8.89a2,2,0,0,0,2.16,3.36,33,33,0,0,1,16.12-5.2,32.69,32.69,0,0,1,20.22,5.62l-4.3.61a2,2,0,0,0,.28,4l.28,0,9-1.27Z" transform="translate(-3 -3)"/></svg>