<svg xmlns="http://www.w3.org/2000/svg" viewBox="0 0 70 90"><path d="M68.75,5H31.25A1.25,1.25,0,0,0,30,6.25V10H22.5A7.5,7.5,0,0,0,15,17.5v70A7.5,7.5,0,0,0,22.5,95h55A7.5,7.5,0,0,0,85,87.5v-70A7.5,7.5,0,0,0,77.5,10H70V6.25A1.25,1.25,0,0,0,68.75,5ZM32.5,7.5h35v6.25a3.75,3.75,0,0,1-3.75,3.75H36.25a3.75,3.75,0,0,1-3.75-3.75Zm45,7.5A2.5,2.5,0,0,1,80,17.5v70A2.5,2.5,0,0,1,77.5,90h-55A2.5,2.5,0,0,1,20,87.5v-70A2.5,2.5,0,0,1,22.5,15h7.63a6.25,6.25,0,0,0,6.12,5h27.5a6.25,6.25,0,0,0,6.12-5Z" transform="translate(-15 -5)"/><path d="M40.37,27.87,31.25,37l-4.12-4.11a1.24,1.24,0,0,0-1.76,1.76l5,5a1.23,1.23,0,0,0,1.76,0l10-10a1.24,1.24,0,0,0-1.76-1.76Z" transform="translate(-15 -5)"/><path d="M40.37,47.87,31.25,57l-4.12-4.11a1.24,1.24,0,0,0-1.76,1.76l5,5a1.23,1.23,0,0,0,1.76,0l10-10a1.24,1.24,0,0,0-1.76-1.76Z" transform="translate(-15 -5)"/><path d="M40.37,67.87,31.25,77l-4.12-4.11a1.24,1.24,0,0,0-1.76,1.76l5,5a1.23,1.23,0,0,0,1.76,0l10-10a1.24,1.24,0,0,0-1.76-1.76Z" transform="translate(-15 -5)"/><path d="M47.5,28.75A1.25,1.25,0,0,0,48.75,30h25a1.25,1.25,0,0,0,0-2.5h-25A1.25,1.25,0,0,0,47.5,28.75Z" transform="translate(-15 -5)"/><path d="M73.75,32.5h-25a1.25,1.25,0,0,0,0,2.5h25a1.25,1.25,0,0,0,0-2.5Z" transform="translate(-15 -5)"/><path d="M48.75,40h12.5a1.25,1.25,0,0,0,0-2.5H48.75a1.25,1.25,0,0,0,0,2.5Z" transform="translate(-15 -5)"/><path d="M73.75,47.5h-25a1.25,1.25,0,0,0,0,2.5h25a1.25,1.25,0,0,0,0-2.5Z" transform="translate(-15 -5)"/><path d="M73.75,52.5h-25a1.25,1.25,0,0,0,0,2.5h25a1.25,1.25,0,0,0,0-2.5Z" transform="translate(-15 -5)"/><path d="M48.75,60h17.5a1.25,1.25,0,0,0,0-2.5H48.75a1.25,1.25,0,0,0,0,2.5Z" transform="translate(-15 -5)"/><path d="M73.75,67.5h-25a1.25,1.25,0,0,0,0,2.5h25a1.25,1.25,0,0,0,0-2.5Z" transform="translate(-15 -5)"/><path d="M73.75,72.5h-25a1.25,1.25,0,0,0,0,2.5h25a1.25,1.25,0,0,0,0-2.5Z" transform="translate(-15 -5)"/><path d="M73.75,77.5h-25a1.25,1.25,0,0,0,0,2.5h25a1.25,1.25,0,0,0,0-2.5Z" transform="translate(-15 -5)"/></svg>