<svg xmlns="http://www.w3.org/2000/svg" viewBox="0 0 283.64 196.31">
    <path class="cow1" d="M-64.89,169.05c5-1.52,25.51-8.47,35.36-22.83.32-1.34.66-2.7.91-4.1,2.59-14.66,2.44-2.63,2.36,0a33.93,33.93,0,0,1-1.11,7.09c-1.14,5.08.82,8.95,2.85,13.51.71,1.59,1.49,3.2,2.26,4.83a25.48,25.48,0,0,0,.92-11.6c-.29-2.06-3-4.73-2.91-6.8.19-6.25.65-12.51,1-18.76C-22.6,117.46-15,97.55-24.73,84c-7.63-10.58-19.1-8.34-30.35-8.34a43.16,43.16,0,0,0-11.87,1.76C-83.07,117-82.27,145.93-64.89,169.05Z" transform="translate(303.45 -48.44)"/>
    <path class="cow2" d="M-137.57,134.08c.25-5.51.95-29.92-4.69-52.44-12.44-1.21-24.88-2.53-37.31-3,8.09,20.58,12.67,37.91,13,57C-156.17,135.28-146.46,134.72-137.57,134.08Z" transform="translate(303.45 -48.44)"/>
    <path class="cow3" d="M-134,133.82c8.74-.68,16.63-1.42,23.5-2.16q-1.55-23.82-1.17-47.83c-8.94-.26-17.89-1-26.84-1.83C-133.23,104.07-133.75,127.48-134,133.82Z" transform="translate(303.45 -48.44)"/>
    <path class="cow4" d="M-213.68,139.54q-13.77-.31-28.22-1.19c.14.29.28.59.4.89,1.47,3.65,2.08,7.28,4.26,10.67s4.31,6.24,5.41,9.94c4.3,14.47,14.87,18.79,19.74,20.43l0,0C-209.77,167.62-210.31,154-213.68,139.54Z" transform="translate(303.45 -48.44)"/>
    <path class="cow5" d="M-170.1,135.78c-.37-19.1-5.05-36.44-13.32-57.22a184.1,184.1,0,0,0-21.9.75c-8.83.88-16.64-.21-25.43-2-1.58-.32-3.27-.67-4.93-1.13-1.24,14.23-5.64,31.27-17.63,45.47,2.08,2.49,4.11,6.25,5.28,7.79,1.3,1.72,2.71,3.43,4,5.22C-217.56,136.4-192.39,136.51-170.1,135.78Z" transform="translate(303.45 -48.44)"/>
    <path class="cow6" d="M-173.9,178c-17.12-1.49-28.7.92-35,4.53-.18.88-.38,1.75-.58,2.61.45,4.79,2.06,9.48,2.68,14.25.75,5.76,0,11.47-.89,17.23-.63,4.11-1.15,7.58-3.87,10.68s-7.87,9.1-7.43,11.17c.35,1.65,3.38.82,5.09.59s5.76,1.48,9.45-.22c1.45-.67-1.26-5-.29-6,1.7-1.93,3,0,4.13-2.88a30.88,30.88,0,0,0,2.07-9.9c.29-3,.05-8.5.59-11.44a178.2,178.2,0,0,0,2.76-19.74c.11-1.51,2-1.08,2.41,2.22.82,6.86,1.49,12.25,4.47,18.48,1.62,3.38,3.14,6.11,2.91,10a41.54,41.54,0,0,1-2.76,12.65c-1.55,3.85-7.28,8.3-5.43,10.08,2.26,2.17,4.89.7,8,.51,1.74-.1,1.95.44,3.4-.37,2.62-1.45,3.78-5.66,3.7-8.34a8.47,8.47,0,0,1,.94-4.48c2.16-5.19,2.48-5.16,1.39-9.88-.38-1.66-.89-3.27-1.2-4.95-1.5-8.33,2.18-16.56.33-24.61-1.17-5.11.33-6.53,1.79-10.24C-175.18,179.23-174,178.61-173.9,178Z" transform="translate(303.45 -48.44)"/>
    <path class="cow7" d="M-245.71,69.79c-.9-1.48-.51-3.25-1-4.65-.27-.85-3.25.55-3.25-.3,0-3,.24-3.17-1.47-4.8-4.41-4.19-8.9-7.34-13.15-11.6A13.72,13.72,0,0,0-261,56.78c1,1-2.74,1.61-3.84,1.57a26,26,0,0,1-16.09-6.48,9.74,9.74,0,0,0,3.66,6.64A29.24,29.24,0,0,0-270.79,62a3,3,0,0,1,1,1.77c.12,8-10.15,8.11-12.48,15-1.13,3.33-1.39,6.53-3.54,9.45-2.28,3.1-5.59,5.19-7.85,8.36a79.11,79.11,0,0,1-5.28,6.47c-3.16,1.49-5.58,4.65-4.06,8.71.84,2.23,3.06,3.57,5.07,4.85,3.34,2.33,5.23,3.31,9.56,2.2,2.46-.64,3.26-1.75,5.84-1,3.69,1.06,1.2,1.8,7,.88.74-.12,1.47-.64,2.26-.55a9.24,9.24,0,0,1,3,.89c4.49,1.73,6.68,1.69,11.29.6,1.25-.3,1.71-.67,2.93-.24,11.54-13.75,15.63-30.56,16.74-44.43A13.19,13.19,0,0,1-245.71,69.79Z" transform="translate(303.45 -48.44)"/>
    <path class="cow8" d="M-30.27,154.42a14.67,14.67,0,0,1-.14-1.85c-11.21,14.42-30.09,19.16-34,20.07a50.58,50.58,0,0,1,4.32,17.87c.34,9.8-3,18.85-6.88,27.75-1.72,4-3.33,8.25-5.91,11.8-2.27,3.14-9.28,6.07-8.67,7.31,1.16,2.34,5.5,1,8.69,1.86,4.65,1.26,8.72-.57,8.94-5.62.2-4.64,3.35-.69,5.68-4.42,3.4-5.44,5.14-18.77,7.53-24.73S-45.85,193-40.59,188.2a1.63,1.63,0,0,1,2.71.38c6.29,12.66,1.48,31.8.5,43.42-.37,4.39-5.75,8.73-6.7,9.89-1.43,1.76,2.61,1.88,4.88,1.92,4.15.07,7.22,2.5,10.19-.74s1-5.83,1.1-9.52A2.46,2.46,0,0,1-26.5,231c.73-.24,3,.71,3.22.61,1.59-.67.78-5.71.84-7,.26-5.76-1-11-.89-16.76s2.11-11.86,2.94-17.6c1.19-8.25-.52-13.64-3.85-21.13C-26.29,164.52-29.48,159.46-30.27,154.42Z" transform="translate(303.45 -48.44)"/>
    <path class="cow9" d="M-210,139.62a104.49,104.49,0,0,1,1.93,38.48c7.11-3.25,17.76-5.07,33.62-3.66a166.09,166.09,0,0,0,4.42-35.12c-8.27.27-16.94.43-25.92.43Q-202.9,139.75-210,139.62Z" transform="translate(303.45 -48.44)"/>
    <path class="cow10" d="M-106.74,134.81q1.48,21,4.49,41.65c10.28-1.82,28.49-4.47,34.61-5.19a69.4,69.4,0,0,1-14.23-39.75C-85.55,132.11-94.23,133.41-106.74,134.81Z" transform="translate(303.45 -48.44)"/>
    <path class="cow11" d="M-107,131.27c12.94-1.45,21.72-2.79,25-3.32,0-1.16,0-2.32.06-3.5.49-13.58,4-28.69,10.65-45.67-5.26,1.75-10.23,3.7-15.83,4.28a180.63,180.63,0,0,1-21,.85C-108.38,99.73-108,115.55-107,131.27Z" transform="translate(303.45 -48.44)"/>
    <path class="cow12" d="M-166.51,139.2a170.08,170.08,0,0,1-4.6,36.31c13.85.92,27.7.89,41.46,2.78,7.64,1,13.69,1.34,21.21-.6.65-.16,1.57-.36,2.7-.59q-3-20.79-4.52-41.9C-124.93,136.76-144.21,138.38-166.51,139.2Z" transform="translate(303.45 -48.44)"/>
</svg>