<svg xmlns="http://www.w3.org/2000/svg" viewBox="0 0 120.59 85.17"><path d="M136,239.05c-1.85-2.13-3.16-4.34-4.87-6.47a9.79,9.79,0,0,0-5-8,8.07,8.07,0,0,0-.59-1.36,9.32,9.32,0,0,0,3.64-3.85c.26-.61.23-.79-.45-.24a12.55,12.55,0,0,1-4.49,2.53,5,5,0,0,0-2.71-1,8.41,8.41,0,0,0,1.38-1.86,6.5,6.5,0,0,0,.71-1.91.45.45,0,0,0-.83-.31c-1,1.43-5.08,3.74-6.69,4.44-1.09.48-2.26,1-2.64,2.19a2.21,2.21,0,0,0,0,1.17h-.08a45,45,0,0,0-11.1,2.49c-7.07-.09-12.87.8-20.16,1.89a100.55,100.55,0,0,1-20,1.37,93.44,93.44,0,0,0-13.18-2c-7.87-.74-16.5-.56-20,3.15l-.08.07a9.52,9.52,0,0,0-2.59,1.78,9.37,9.37,0,0,0-1.8,2.3c-1.76,3.38-1,7.68-.29,12.83.51,3.84,1.06,7.91.65,11.68-1.7.25-2.32,2-2.77,4.19-.58,2.84,0,6.88-3.2,8.54a1.59,1.59,0,0,0,.86,0,3.94,3.94,0,0,1-1.74,1,3.45,3.45,0,0,0,2.94-1,2.16,2.16,0,0,1-.36.73,2.2,2.2,0,0,0,.39-.18,7,7,0,0,0,0,1.52c.82,7.25,2,11.49,1.78,19.19a3.83,3.83,0,0,0,.09,1.22,1.44,1.44,0,0,0,.33.57.72.72,0,0,0,1,.07v0a13.61,13.61,0,0,0,.65,3.95,2.05,2.05,0,0,0,.7.76,3.18,3.18,0,0,0,.73.38l.16.05a8.4,8.4,0,0,0,1.91.38,13.41,13.41,0,0,0,3,0c1.52-.29,2.11-1.12,1.6-2.57A15.86,15.86,0,0,0,30,294.56c-.22-1.49-.43-3.38-.59-4.82-.49-4.91-.65-9.31,2.37-13.59.9,4.8,2.41,7.22,4,11.73.76,2.14.94,3,1.6,5,.43,1.3,1.09,1.74,2,1.38.11,4.29,2,5.21,4.81,5.22.89,0,4.07.1,4.31-.92.4-1.77-4.24-6.23-5.3-7.35-1.9-3.47-3.9-7.94-3.15-12s3.27-5,5.68-10.12a42.41,42.41,0,0,0,5.3,1.12c2.69.4,8.2.92,10.83,2.78.38.25.76.53,1.15.82a9.68,9.68,0,0,0,1.23.81,8.72,8.72,0,0,0,1.38.57.34.34,0,0,0,.2,0,.32.32,0,0,0,.21-.4,3.39,3.39,0,0,1-.11-1.58c2-2.05,7.42-.34,10-.08a47.93,47.93,0,0,0,10.3-.12,59.79,59.79,0,0,0,1.4,10.06,35.55,35.55,0,0,1-.11,10.25,5.9,5.9,0,0,0-.09.72,3.14,3.14,0,0,0,.07.74,1.3,1.3,0,0,0,.41.72,1,1,0,0,0,.77.22l0,.13a4.43,4.43,0,0,0,0,2.45,3.79,3.79,0,0,0,.87,1.47,4.61,4.61,0,0,0,1.56,1.05l.47.18.44.13a9.75,9.75,0,0,0,4.8,0,2.25,2.25,0,0,0,.3-.24,1.26,1.26,0,0,0,.3-.67,3.16,3.16,0,0,0-.34-1.57,11.87,11.87,0,0,0-.87-1.55c-.31-.47-.62-.89-.91-1.28-.45-.58-.85-1.07-1.18-1.46v-.3a85.46,85.46,0,0,1,0-8.62c.31-.9.57-1.8.81-2.72a57.07,57.07,0,0,1,1.29,11.43c0,1,.59,1.6,1.3,1.63.42,2,1.08,3.19,3.5,3.76a15.05,15.05,0,0,0,4.15.14c3-.35-2.74-6-3.5-7a39.36,39.36,0,0,1-1.5-9.69,50.12,50.12,0,0,0,1.71-12.4,13.66,13.66,0,0,0,6.07-6h0l.5-.3A18.44,18.44,0,0,0,116,254.09a7.89,7.89,0,0,0,4.48-4.19,11.88,11.88,0,0,0,4.89-.4c3.54-1,3.7-1.75,7.52-1.28a3.29,3.29,0,0,0,3.35-1.42C139.46,245.82,139.16,240.81,136,239.05ZM26.93,262a3,3,0,0,0-.71-1.51,2.13,2.13,0,0,0-.34-.33,47.25,47.25,0,0,0-.55-11.37c.31,1.2.62,2.36.89,3.54A25.62,25.62,0,0,1,26.93,262Z" transform="translate(-17.93 -216.29)"/></svg>