<svg xmlns="http://www.w3.org/2000/svg" viewBox="0 0 130.39 88.16"><path d="M-81.67,305.53a11.59,11.59,0,0,1-2.89-.33l-.15,0a2.79,2.79,0,0,1-.35-.11l-.48-.18a5.66,5.66,0,0,1-1.94-1.31,4.78,4.78,0,0,1-1.1-1.85,5.18,5.18,0,0,1-.2-2.15,2.83,2.83,0,0,1-.28-.2,2.35,2.35,0,0,1-.73-1.26,3.68,3.68,0,0,1-.08-1,6,6,0,0,1,.1-.86,34.52,34.52,0,0,0,.11-9.9A59.24,59.24,0,0,1-91,277.22a46.83,46.83,0,0,1-9.48,0c-.61-.07-1.37-.21-2.17-.36-2.17-.4-5.39-1-6.74-.06a2.66,2.66,0,0,0,.12.82,1.32,1.32,0,0,1-.89,1.62,1.33,1.33,0,0,1-.79,0,8.66,8.66,0,0,1-1.56-.65,10.05,10.05,0,0,1-1.34-.88l-.23-.16c-.29-.22-.58-.43-.87-.62-2.1-1.49-6.35-2.07-9.16-2.45l-1.28-.18c-1.83-.29-3.25-.58-4.61-.93a28,28,0,0,1-2.86,4.47,10.37,10.37,0,0,0-2.37,4.65c-.71,3.8,1.34,8.19,3,11.21l.42.44c3.4,3.48,5.42,6,5,7.72s-2.81,1.74-5.09,1.7h-.2c-2.45,0-5.25-.63-5.74-5.13a1.81,1.81,0,0,1-.48-.15,3.12,3.12,0,0,1-1.51-2c-.26-.8-.44-1.41-.62-2-.28-.92-.52-1.71-1-3s-1-2.64-1.49-3.81a44.34,44.34,0,0,1-2-5.56c-1.53,3.33-1.36,6.79-1,10.8l0,.34c.14,1.27.31,2.85.51,4.14a16.14,16.14,0,0,1,2.86,4.16,2.93,2.93,0,0,1-.07,2.51,3.13,3.13,0,0,1-2.27,1.39,13.3,13.3,0,0,1-3.25,0,8.92,8.92,0,0,1-2.14-.42l-.18-.06a4.28,4.28,0,0,1-1-.51,3.13,3.13,0,0,1-1-1.12,10.23,10.23,0,0,1-.68-3.3,1.74,1.74,0,0,1-.83-.51,2.19,2.19,0,0,1-.54-.94,4.39,4.39,0,0,1-.14-1.57,67,67,0,0,0-1-13.19c-.27-1.81-.54-3.69-.79-5.85,0-.07,0-.14,0-.21l-2,.62.39-.52-.46,0-5.42-.64,4.31-1.07-.31-.13,2-1c2-1,2.16-3.19,2.38-5.51a22,22,0,0,1,.3-2.34c.29-1.43.81-4,2.81-4.77a52.51,52.51,0,0,0-.7-10.76l-.17-1.21c-.65-4.73-1.21-8.82.56-12.22a10.3,10.3,0,0,1,2-2.57,10.51,10.51,0,0,1,2.69-1.88c3.24-3.27,10.19-4.39,20.74-3.39a97.18,97.18,0,0,1,13.23,2,99.88,99.88,0,0,0,19.73-1.36l.46-.07c7.1-1.06,12.72-1.88,19.63-1.83a49.51,49.51,0,0,1,10.38-2.42,2.57,2.57,0,0,1,.12-.55c.52-1.62,2-2.27,3.2-2.8,1.72-.75,5.47-3,6.27-4.09a1.41,1.41,0,0,1,1.48-.62,1.45,1.45,0,0,1,1.15,1.69,7.4,7.4,0,0,1-.82,2.21,8.77,8.77,0,0,1-.46.75,5.45,5.45,0,0,1,1.08.54,11.59,11.59,0,0,0,3.67-2.18c.36-.28,1.13-.9,1.84-.35s.32,1.43.18,1.76a10.4,10.4,0,0,1-3.27,3.8l.12.32a10.71,10.71,0,0,1,5.14,8.34c.68.87,1.3,1.74,1.91,2.59.82,1.15,1.66,2.34,2.64,3.48a6.14,6.14,0,0,1,2.85,5.75,4.23,4.23,0,0,1-2.6,3.62,4.28,4.28,0,0,1-4.06,1.58,8.08,8.08,0,0,0-4.79.47c-.6.22-1.36.49-2.37.77a13.18,13.18,0,0,1-4.58.51,8.66,8.66,0,0,1-4.22,3.83,19.51,19.51,0,0,1-7.95,10.32l-.29.17a14.75,14.75,0,0,1-5.84,5.91,49.68,49.68,0,0,1-1.7,11.91,39.38,39.38,0,0,0,1.41,9.1l.53.59c2.9,3.25,4.36,5.29,3.8,6.77A1.82,1.82,0,0,1-71,303.77a16,16,0,0,1-4.51-.16,6,6,0,0,1-2.38-1.05,2.77,2.77,0,0,1,0,.91,2.16,2.16,0,0,1-.55,1.19,2.38,2.38,0,0,1-.53.43A6.84,6.84,0,0,1-81.67,305.53Zm-4.6-7.89-.43,1.6a3.62,3.62,0,0,0,0,1.85,2.81,2.81,0,0,0,.65,1.09,3.72,3.72,0,0,0,1.23.84l.34.12.29.09.17,0a9,9,0,0,0,4.09,0s0-.07,0-.14a2,2,0,0,0-.26-1,10.54,10.54,0,0,0-.8-1.41c-.29-.45-.59-.85-.86-1.21-.44-.57-.83-1-1.15-1.43l-.22-.27,0-.63a84.53,84.53,0,0,1,0-8.72l0-.26c.28-.82.54-1.69.79-2.66l1-3.86.93,3.88a58.52,58.52,0,0,1,1.32,11.62c0,.07,0,.67.33.68l.78,0,.17.76c.36,1.74.83,2.54,2.75,3a13.92,13.92,0,0,0,3.74.12c-.14-.54-.89-1.79-3.38-4.57-.34-.39-.61-.68-.74-.85l-.12-.16,0-.18a40.51,40.51,0,0,1-1.54-9.95v-.14l0-.14a49.18,49.18,0,0,0,1.68-12.16l0-.58.51-.27a12.7,12.7,0,0,0,5.65-5.6l.18-.37.31-.1.44-.25a17.45,17.45,0,0,0,7.14-9.55l.11-.46.44-.2a6.85,6.85,0,0,0,4-3.7l.31-.67.73.1a10.82,10.82,0,0,0,4.5-.38c.93-.26,1.62-.5,2.23-.72a9.85,9.85,0,0,1,5.66-.58,2.32,2.32,0,0,0,2.42-1l.2-.28.33-.1a2.25,2.25,0,0,0,1.52-2,4.1,4.1,0,0,0-2-3.89l-.16-.08-.11-.13c-1.09-1.25-2-2.53-2.87-3.76-.65-.91-1.32-1.85-2-2.75l-.2-.25,0-.33a8.83,8.83,0,0,0-4.46-7.21l-.34-.18-.12-.37a7.46,7.46,0,0,0-.52-1.2l-.48-.85.44-.26-.07,0-.51.17-.43-.33a3.88,3.88,0,0,0-2.17-.83l-2.1-.19,1.48-1.5a6.93,6.93,0,0,0,.83-1,32.19,32.19,0,0,1-5.15,3c-1.12.5-1.87.87-2.1,1.58a1.37,1.37,0,0,0,0,.67l.25,1.2h-1.23a45.54,45.54,0,0,0-10.7,2.37l-.23.12H-74c-6.84-.08-12.45.75-19.54,1.81l-.46.07a101.56,101.56,0,0,1-20.21,1.38l-.21,0a89.72,89.72,0,0,0-13-2c-9.91-.93-16.53.05-19.16,2.84l-.14.15-.26.16a8.17,8.17,0,0,0-2.3,1.58,8,8,0,0,0-1.6,2c-1.48,2.84-1,6.45-.36,11l.17,1.21c0,.21.05.42.08.63l1.1-.21.27,1.07c.22.83.43,1.65.62,2.48a26.78,26.78,0,0,1,.73,10l-.8,6.39-1.17-6.33a2.19,2.19,0,0,0-.48-1A2.39,2.39,0,0,0-151,264l-.05,0-.27,0c-.92.13-1.46,1.09-1.93,3.4a20.23,20.23,0,0,0-.27,2.13,17.82,17.82,0,0,1-.54,3.39l.61-.61-.42,1.6.17-.05-.23.28-.3,1.1-.12,1.08a5.75,5.75,0,0,0,0,1.3c.24,2.12.51,4,.78,5.78a68.67,68.67,0,0,1,1,13.56,3.41,3.41,0,0,0,.05.86l1.28-1,.11,1.85a14.09,14.09,0,0,0,.52,3.53,1.14,1.14,0,0,0,.41.44,2.2,2.2,0,0,0,.51.26l.15.05a6.61,6.61,0,0,0,1.66.32,11.56,11.56,0,0,0,2.72,0,1.35,1.35,0,0,0,.88-.42,1.14,1.14,0,0,0-.07-.83,15.13,15.13,0,0,0-2.56-3.6l-.32-.37,0-.28c-.21-1.39-.41-3.12-.56-4.51l0-.35c-.51-5.12-.66-9.72,2.55-14.28l1.36-1.93.44,2.32a35.29,35.29,0,0,0,2.45,7.67c.49,1.2,1,2.43,1.53,3.91s.73,2.19,1,3.1c.17.56.35,1.16.6,1.94s.45.81.45.81.08,0,.19,0l1.34-.55,0,1.45c.09,3.57,1.36,4.23,3.82,4.24h.21a8.67,8.67,0,0,0,3.12-.28c-.07-.54-.84-2-4.51-5.75l-.54-.55-.15-.21c-1.8-3.29-4.09-8.17-3.26-12.65a12.14,12.14,0,0,1,2.74-5.47,25.87,25.87,0,0,0,3-4.88l.36-.77.82.23a42.36,42.36,0,0,0,5.18,1.09l1.24.17c3,.41,7.55,1,10,2.78.3.19.61.43.94.67l.22.16a8.7,8.7,0,0,0,1.12.73l.16.09a5.4,5.4,0,0,1,.06-.77l0-.31.22-.23c1.91-2,5.72-1.27,8.77-.7.77.14,1.49.27,2,.33a46.61,46.61,0,0,0,10.1-.12l1-.11.07,1A58.82,58.82,0,0,0-87.7,286l0,.1a36.31,36.31,0,0,1-.12,10.52c0,.21-.06.41-.07.61a1.44,1.44,0,0,0,0,.48.3.3,0,0,0,.08.17Zm5.08-.56.1.12c-.07-1.34-.13-2.51-.2-3.54C-81.28,294.79-81.24,295.91-81.19,297.08Zm-30-18.93v0Zm58.62-58-.06.09Z" transform="translate(166.61 -217.87)"/><path d="M-81.67,306a12.62,12.62,0,0,1-3-.34l-.16-.05-.37-.11-.5-.19a6.23,6.23,0,0,1-2.12-1.43,5.24,5.24,0,0,1-1.22-2.05,5.56,5.56,0,0,1-.24-2.06l-.09-.07a2.78,2.78,0,0,1-.88-1.52,4.28,4.28,0,0,1-.1-1.11,6.82,6.82,0,0,1,.1-.92,33.9,33.9,0,0,0,.12-9.76,57.93,57.93,0,0,1-1.31-8.66,45.51,45.51,0,0,1-9.08,0c-.62-.06-1.37-.2-2.18-.35-1.84-.34-4.83-.89-6.16-.28,0,.11,0,.24.09.41a1.8,1.8,0,0,1-1.23,2.23,1.89,1.89,0,0,1-1.08,0,9.29,9.29,0,0,1-1.66-.7,10.48,10.48,0,0,1-1.39-.91l-.23-.16-.84-.61c-2-1.42-6.2-2-9-2.37l-1.28-.18c-1.69-.26-3-.53-4.27-.83a30.09,30.09,0,0,1-2.73,4.18,9.89,9.89,0,0,0-2.28,4.44c-.68,3.64,1.32,7.91,2.9,10.82l.38.39c3.6,3.69,5.6,6.22,5.16,8.18-.5,2.17-3.81,2.11-5.59,2.09h-.19c-2.36,0-5.54-.57-6.19-5.23a1.33,1.33,0,0,1-.24-.1,3.55,3.55,0,0,1-1.78-2.31c-.25-.79-.44-1.4-.61-2-.28-.92-.52-1.71-1-3s-1-2.62-1.48-3.79c-.57-1.39-1.12-2.72-1.6-4.2-.92,2.86-.73,5.88-.4,9.2l0,.33c.14,1.22.31,2.72.49,4a15.73,15.73,0,0,1,2.86,4.2,3.4,3.4,0,0,1-.11,2.93,3.59,3.59,0,0,1-2.61,1.63,13.38,13.38,0,0,1-3.39,0,10,10,0,0,1-2.25-.44l-.19-.07a4.91,4.91,0,0,1-1.1-.57,3.71,3.71,0,0,1-1.17-1.31,8.88,8.88,0,0,1-.7-3.16,2.36,2.36,0,0,1-.73-.53,2.81,2.81,0,0,1-.65-1.12,5.1,5.1,0,0,1-.16-1.76,66.68,66.68,0,0,0-1-13.08c-.25-1.72-.51-3.48-.74-5.49l-2.91.91.78-1.05-7.71-.91,5.8-1.45,2.7-1.38c1.71-.87,1.89-2.83,2.1-5.1a23.12,23.12,0,0,1,.31-2.4c.29-1.41.82-4,2.82-5a54,54,0,0,0-.72-10.37l-.16-1.2c-.66-4.82-1.23-9,.61-12.52a10.35,10.35,0,0,1,2.1-2.7,10.87,10.87,0,0,1,2.74-1.93c3.35-3.31,10.44-4.48,21.08-3.47a96.51,96.51,0,0,1,13.25,2,99.22,99.22,0,0,0,19.58-1.35l.47-.07a125.05,125.05,0,0,1,19.6-1.84A51.08,51.08,0,0,1-64.27,226l.06-.24c.59-1.84,2.26-2.57,3.48-3.1,1.84-.81,5.36-2.94,6.06-3.93a1.89,1.89,0,0,1,2-.82,2,2,0,0,1,1.55,2.28,7.61,7.61,0,0,1-.88,2.36c0,.09-.1.18-.16.27l.4.22a11.08,11.08,0,0,0,3.29-2c.37-.29,1.45-1.15,2.48-.36.67.52.78,1.31.32,2.35a10.85,10.85,0,0,1-3,3.69,11.21,11.21,0,0,1,5,8.38c.64.83,1.23,1.65,1.8,2.46.84,1.17,1.66,2.32,2.59,3.42a6.57,6.57,0,0,1,3,6.18,4.77,4.77,0,0,1-2.79,4,4.73,4.73,0,0,1-4.41,1.65,7.62,7.62,0,0,0-4.56.45c-.58.21-1.37.49-2.42.78a13.89,13.89,0,0,1-4.43.55A9,9,0,0,1-59,258.24a20,20,0,0,1-8.11,10.39l-.17.1A15,15,0,0,1-73,274.57a50.76,50.76,0,0,1-1.68,11.68A38.66,38.66,0,0,0-73.29,295l.45.51c3.1,3.47,4.55,5.55,3.9,7.27a2.34,2.34,0,0,1-2,1.45,16.9,16.9,0,0,1-4.69-.17,7.88,7.88,0,0,1-1.74-.62v.06a2.82,2.82,0,0,1-.68,1.46,3.16,3.16,0,0,1-.65.52A7.22,7.22,0,0,1-81.67,306Zm-8.87-29.36,0,.51a58.74,58.74,0,0,0,1.33,9.06,34.82,34.82,0,0,1-.11,10.1,6.75,6.75,0,0,0-.09.8,3,3,0,0,0,.07.85,1.76,1.76,0,0,0,.57,1,1,1,0,0,0,.21.16l.27.16,0,.32a4.84,4.84,0,0,0,.17,1.94,4.29,4.29,0,0,0,1,1.67,5.34,5.34,0,0,0,1.77,1.19l.47.18.3.09.16,0a11.42,11.42,0,0,0,2.75.31,6.25,6.25,0,0,0,2.47-.39,2.12,2.12,0,0,0,.39-.32,1.77,1.77,0,0,0,.42-.92,2.8,2.8,0,0,0,0-.76l-.23-1.28,1,.8a5.62,5.62,0,0,0,2.19,1,15.81,15.81,0,0,0,4.33.14,1.32,1.32,0,0,0,1.21-.8c.47-1.24-1-3.23-3.7-6.25l-.54-.61-.1-.19a39.8,39.8,0,0,1-1.43-9.22v-.07l0-.07a49.7,49.7,0,0,0,1.68-11.8V274l.24-.14A14.17,14.17,0,0,0-68,268.13L-68,268l.42-.24a18.9,18.9,0,0,0,7.72-10l.06-.21.2-.1a8,8,0,0,0,4-3.62l.15-.28.32,0a12.74,12.74,0,0,0,4.42-.49c1-.28,1.77-.56,2.33-.76a8.59,8.59,0,0,1,5-.5,3.76,3.76,0,0,0,3.6-1.39l.09-.1.12-.05A3.73,3.73,0,0,0-37.25,247a5.65,5.65,0,0,0-2.61-5.26l-.12-.1c-1-1.15-1.83-2.34-2.65-3.49-.64-.9-1.25-1.76-1.91-2.6l-.09-.12,0-.15a10.21,10.21,0,0,0-4.89-8l-.15-.09-.07-.16a1.88,1.88,0,0,0-.12-.3l-.15-.37.33-.23a9.76,9.76,0,0,0,3.11-3.62c.26-.58.25-.91,0-1.13s-.72-.06-1.23.34a12.05,12.05,0,0,1-3.81,2.26l-.23.09-.21-.14a5.07,5.07,0,0,0-1-.49l-.59-.22.35-.53c.15-.22.3-.46.44-.71a7.16,7.16,0,0,0,.66-1.58l0,0-.48-.39-1.41,2.09a7.86,7.86,0,0,1-.9,1.1l-.73.75,1,.09a4.54,4.54,0,0,1,2.45.93l.21.17,4.69-1.54-4,2.35.23.43a7.24,7.24,0,0,1,.56,1.28l.06.18.17.1a9.33,9.33,0,0,1,4.72,7.62v.16l.1.13c.73.91,1.41,1.86,2.06,2.77.86,1.22,1.76,2.48,2.83,3.72l.14.11a4.56,4.56,0,0,1,2.24,4.37,2.69,2.69,0,0,1-1.87,2.46l-.16,0-.1.14a2.79,2.79,0,0,1-2.87,1.22,9.29,9.29,0,0,0-5.44.55c-.62.22-1.32.47-2.28.74a11.58,11.58,0,0,1-4.7.39l-.36-.06-.16.34a7.34,7.34,0,0,1-4.23,3.94l-.22.1-.06.24a18,18,0,0,1-7.37,9.85l-.65.33-.09.19a13.2,13.2,0,0,1-5.85,5.81l-.26.14v.29a49.2,49.2,0,0,1-1.7,12.27l0,.07v.08a39.85,39.85,0,0,0,1.52,9.81l.09.17c.12.17.38.45.71.82,2.15,2.4,3.29,4,3.5,4.79l.14.55-.57.07a15,15,0,0,1-3.93-.13c-2.14-.52-2.71-1.5-3.11-3.38l-.08-.39h-.39c-.48,0-.79-.46-.82-1.16A58.23,58.23,0,0,0-80.9,285.7l-.46-1.94-.51,1.93c-.25,1-.51,1.86-.79,2.69l0,.19a85.23,85.23,0,0,0,0,8.61l0,.47.1.13c.33.38.73.87,1.16,1.44.29.38.59.79.89,1.25a10.39,10.39,0,0,1,.84,1.48,2.63,2.63,0,0,1,.3,1.3l-.05.47-.27,0a9.34,9.34,0,0,1-4.43,0l-.18,0-.32-.11-.35-.13a4.26,4.26,0,0,1-1.42-1,3.5,3.5,0,0,1-.76-1.29,4.18,4.18,0,0,1,0-2.14l.23-.86-1,.13-.17-.14a.85.85,0,0,1-.25-.46,2.13,2.13,0,0,1-.05-.6,5.69,5.69,0,0,1,.08-.68,36,36,0,0,0,.12-10.37l0-.07a58.22,58.22,0,0,1-1.38-10l0-.52-.52.05a47,47,0,0,1-10.2.13c-.56-.06-1.28-.2-2.06-.34-2.94-.54-6.6-1.22-8.32.56l-.11.11,0,.16a4.19,4.19,0,0,0,0,.68v.83l-.74-.38-.18-.09a9.71,9.71,0,0,1-1.16-.76l-.23-.17c-.31-.23-.62-.46-.91-.65-2.38-1.69-6.85-2.3-9.81-2.7l-1.25-.18a41.54,41.54,0,0,1-5.24-1.1l-.41-.11-.18.38a25.75,25.75,0,0,1-3.07,5,11.73,11.73,0,0,0-2.64,5.27c-.81,4.32,1.44,9.1,3.2,12.32l.12.15.49.5c3,3.08,4.52,5.05,4.64,6l.05.36-.34.16a9.31,9.31,0,0,1-3.33.32h-.2c-2.66,0-4.22-.79-4.32-4.73l0-.72-.67.27a.73.73,0,0,1-.59,0c-.2-.1-.47-.37-.71-1.12s-.44-1.38-.61-1.95c-.27-.9-.53-1.74-1-3.07s-1-2.7-1.52-3.88a36.22,36.22,0,0,1-2.48-7.77l-.22-1.17-.68,1c-3.12,4.41-3,8.92-2.46,13.94l0,.34c.15,1.39.34,3.12.56,4.49l0,.14.22.26a15.17,15.17,0,0,1,2.65,3.76,1.5,1.5,0,0,1,0,1.25,1.77,1.77,0,0,1-1.21.66,12.25,12.25,0,0,1-2.87,0,7.73,7.73,0,0,1-1.77-.34l-.16-.06a2.84,2.84,0,0,1-.63-.32,1.85,1.85,0,0,1-.57-.62,14,14,0,0,1-.57-3.74l0-.92-1.14.85-.18-.72a3.46,3.46,0,0,1-.07-1,67.86,67.86,0,0,0-1-13.46c-.26-1.8-.54-3.66-.78-5.79a6.85,6.85,0,0,1,0-1.42l.13-1.08.14-.56h0l.17-.65-.68.69.55-1.89a16.87,16.87,0,0,0,.52-3.3,21.15,21.15,0,0,1,.28-2.18c.44-2.14,1-3.6,2.35-3.8l.49-.07.17.14a2.71,2.71,0,0,1,.34.33,2.59,2.59,0,0,1,.59,1.26l.58,3.16.4-3.19a26.38,26.38,0,0,0-.71-9.85c-.2-.82-.41-1.63-.62-2.46l-.16-.62-1.15.22-.32-2.36c-.64-4.67-1.15-8.35.4-11.33a8.7,8.7,0,0,1,1.7-2.17,9,9,0,0,1,2.45-1.68l.24-.19c2.73-2.91,9.5-3.94,19.57-3a90.78,90.78,0,0,1,13.1,2l.16,0a100.48,100.48,0,0,0,20.07-1.38l.45-.07c7.09-1.05,12.68-1.9,19.62-1.81h.14l.11-.06a45.86,45.86,0,0,1,10.93-2.43h.63l-.13-.6a1.89,1.89,0,0,1,0-.92c.29-.91,1.17-1.35,2.37-1.88a33.16,33.16,0,0,0,5.06-3l2-1.49-.2-.16.14.07-.12-.11.26.15.19-.14-.12.18.5.28c0-.1,0-.21.07-.32a1,1,0,0,0-.76-1.11.91.91,0,0,0-.95.38c-.9,1.29-4.77,3.54-6.5,4.3-1.16.51-2.47,1.09-2.92,2.49a2.47,2.47,0,0,0-.11.47l0,.39-.39,0A49.81,49.81,0,0,0-74,229.33l-.1,0h-.11a122.73,122.73,0,0,0-19.55,1.82l-.46.07a100.1,100.1,0,0,1-19.82,1.37h-.1a95.79,95.79,0,0,0-13.15-2c-10.39-1-17.24.11-20.34,3.24l-.14.1a10,10,0,0,0-2.56,1.79,9.3,9.3,0,0,0-1.9,2.44c-1.7,3.26-1.15,7.27-.51,11.93l.16,1.2a53.45,53.45,0,0,1,.71,10.87l0,.31-.29.12c-1.75.7-2.23,3-2.51,4.4a20.45,20.45,0,0,0-.29,2.29c-.22,2.35-.45,4.78-2.65,5.9l-1,.5.73.29-3.17.8,2.71.32.41,0h1l0,.08,1.14-.36.08.83c.24,2.14.52,4,.78,5.81a67.2,67.2,0,0,1,1,13.29,4.11,4.11,0,0,0,.12,1.42,1.73,1.73,0,0,0,.41.72,1.32,1.32,0,0,0,.61.39l.34.09,0,.35a9.49,9.49,0,0,0,.61,3.09,2.74,2.74,0,0,0,.87,1,3.71,3.71,0,0,0,.87.44l.17.06a8.72,8.72,0,0,0,2,.4,13.22,13.22,0,0,0,3.13,0,2.63,2.63,0,0,0,1.91-1.14,2.46,2.46,0,0,0,0-2.09,15.69,15.69,0,0,0-2.77-4l-.1-.11,0-.15c-.19-1.3-.37-2.89-.51-4.16l0-.34c-.39-4-.59-7.58,1-11l.58-1.26.36,1.33a44.65,44.65,0,0,0,2,5.5c.49,1.18,1,2.39,1.5,3.84s.71,2.1,1,3c.18.59.36,1.19.61,2a2.62,2.62,0,0,0,1.25,1.71,1.52,1.52,0,0,0,.36.12l.37.07,0,.37c.44,4.11,2.9,4.67,5.25,4.68h.19c2.12,0,4.33-.09,4.6-1.31.34-1.51-1.71-4-4.9-7.26l-.5-.55c-1.66-3.05-3.78-7.56-3-11.54a10.71,10.71,0,0,1,2.46-4.85,28.71,28.71,0,0,0,2.82-4.4l.18-.36.39.1c1.32.34,2.73.62,4.56.91l1.26.18c2.86.39,7.19,1,9.39,2.54.27.18.56.39.85.6l.25.19a10.17,10.17,0,0,0,1.28.83,8.17,8.17,0,0,0,1.49.62.75.75,0,0,0,.49,0,.81.81,0,0,0,.55-1,3.48,3.48,0,0,1-.14-1v-.25l.21-.14c1.52-1.06,4.75-.45,7.11,0,.81.15,1.55.29,2.13.35a45.94,45.94,0,0,0,9.39,0ZM-85.6,297l-.61,2.33a3,3,0,0,0,0,1.55,2.29,2.29,0,0,0,.54.92,3.4,3.4,0,0,0,1.07.72l.31.11.23.08.2.05a10,10,0,0,0,3.47.15,3.35,3.35,0,0,0-.21-.6,9.11,9.11,0,0,0-.76-1.34c-.28-.43-.57-.82-.84-1.18-.43-.56-.82-1-1.13-1.41l-.33-.4,0-.8a85.5,85.5,0,0,1,0-8.77l.06-.33c.29-.87.55-1.73.8-2.69l1.52-5.78,1.39,5.82a59.36,59.36,0,0,1,1.33,11.71.71.71,0,0,0,0,.21l1,0,.24,1.15c.35,1.64.73,2.22,2.38,2.62a13.76,13.76,0,0,0,2.88.15,26.72,26.72,0,0,0-3-3.79c-.35-.39-.62-.7-.75-.88l-.21-.32,0-.19a40.94,40.94,0,0,1-1.56-10.07v-.22l.06-.21a48.49,48.49,0,0,0,1.66-12l0-.86.76-.41A12.17,12.17,0,0,0-69.7,267l.28-.55.46-.15.38-.22a16.8,16.8,0,0,0,6.91-9.24l.18-.7.66-.3a6.28,6.28,0,0,0,3.73-3.45l.47-1,1.1.16a10.54,10.54,0,0,0,4.3-.37c.92-.26,1.6-.5,2.19-.71a10.36,10.36,0,0,1,5.89-.61,1.82,1.82,0,0,0,2-.8l.29-.42.49-.14a1.73,1.73,0,0,0,1.17-1.61,3.56,3.56,0,0,0-1.74-3.4l-.29-.19-.11-.14a46.17,46.17,0,0,1-2.9-3.79c-.64-.9-1.31-1.84-2-2.72l-.3-.39,0-.49a8.33,8.33,0,0,0-4.2-6.79l-.51-.28-.19-.55A6.38,6.38,0,0,0-52,227l-.38-.69-.54-.42a3.39,3.39,0,0,0-1.91-.72l-3.14-.29.5-.51c-.82.46-1.56.83-2.05,1-1,.44-1.66.76-1.82,1.28a.79.79,0,0,0,0,.41l.37,1.8h-1.84a46.35,46.35,0,0,0-10.46,2.31l-.35.18H-74c-6.85-.08-12.42.75-19.46,1.8l-.45.07a101.78,101.78,0,0,1-20.31,1.39l-.26,0a90.83,90.83,0,0,0-13-1.94c-9.76-.91-16.24,0-18.75,2.68l-.25.24-.26.16a8.25,8.25,0,0,0-2.22,1.51,7.51,7.51,0,0,0-1.5,1.92c-1.4,2.69-.92,6.23-.3,10.72l.18,1.32,1-.2.4,1.53c.21.84.43,1.66.62,2.48a27.51,27.51,0,0,1,.74,10.2l-1.21,9.59-1.76-9.5a1.52,1.52,0,0,0-.36-.79l-.06-.06h0c-.46.07-1,.48-1.51,3a18.62,18.62,0,0,0-.26,2.06c0,.58-.11,1.19-.2,1.82l.74-.74-.68,2.55.9-.25-1.22,1.43-.26,1-.11,1a4.82,4.82,0,0,0,0,1.19c.24,2.11.51,4,.77,5.76a69.13,69.13,0,0,1,1,13.53l1.26-.94.17,2.77a14.87,14.87,0,0,0,.45,3.31.7.7,0,0,0,.27.28,1.24,1.24,0,0,0,.4.2l.14.05a6.61,6.61,0,0,0,1.53.29,10.65,10.65,0,0,0,2.61,0,1.25,1.25,0,0,0,.53-.19,3.28,3.28,0,0,1-.12-.39,14.84,14.84,0,0,0-2.47-3.44l-.41-.48-.06-.43c-.22-1.39-.41-3.13-.57-4.52l0-.36c-.51-5.22-.67-9.92,2.64-14.62l2.05-2.9L-143,279a34.9,34.9,0,0,0,2.42,7.57c.5,1.2,1,2.44,1.54,3.93s.74,2.21,1,3.12c.17.56.36,1.16.61,1.93a2.48,2.48,0,0,0,.15.39l1.84-.74.05,2.17c.08,3.22,1,3.74,3.32,3.75h.22a14.1,14.1,0,0,0,2.46-.12c-.32-.63-1.29-2.05-4.22-5.06l-.54-.56-.19-.25c-1.87-3.41-4.21-8.41-3.35-13a12.58,12.58,0,0,1,2.83-5.68,25.69,25.69,0,0,0,3-4.79l.54-1.16,1.22.35a40.28,40.28,0,0,0,5.13,1.07l1.22.18c3.06.41,7.68,1,10.24,2.87.29.18.61.42,1,.66l.22.17.54.39v0l.07-.46.33-.34c2.1-2.17,6-1.44,9.22-.85.76.14,1.47.27,2,.32a45.51,45.51,0,0,0,10-.12l1.56-.16.1,1.56a58,58,0,0,0,1.36,9.82l0,.12a36.7,36.7,0,0,1-.11,10.68,3.89,3.89,0,0,0-.07.56v.08Zm5.07,1.65-1.06-1.3-.1-.29c0-1.17-.09-2.3-.1-3.43l1-.05c.08,1,.14,2.21.2,3.56Zm-31.14-20.35.15-.06-.15,0,1-.31v.05Z" transform="translate(166.61 -217.87)"/></svg>