<svg xmlns="http://www.w3.org/2000/svg" viewBox="0 0 118.19 118.19"><path d="M482.48,1064.55a2.41,2.41,0,1,1,0-4.81h58.09a7,7,0,0,0,7-7V960.15a7,7,0,0,0-7-7H482.48a2.41,2.41,0,0,1,0-4.82h58.09a11.8,11.8,0,0,1,11.79,11.79v92.61a11.8,11.8,0,0,1-11.79,11.79Z" transform="translate(-435.17 -947.36)"/><path d="M482.48,1065.55h0a3.41,3.41,0,1,1,0-6.81h58.09a6,6,0,0,0,6-6V960.15a6,6,0,0,0-6-6H482.48a3.41,3.41,0,0,1,0-6.82h58.09a12.81,12.81,0,0,1,12.79,12.79v92.61a12.81,12.81,0,0,1-12.79,12.79Zm0-116.19a1.41,1.41,0,0,0,0,2.82h58.09a8,8,0,0,1,8,8v92.61a8,8,0,0,1-8,8H482.48a1.41,1.41,0,1,0,0,2.81h58.09a10.8,10.8,0,0,0,10.79-10.79V960.15a10.8,10.8,0,0,0-10.79-10.79Z" transform="translate(-435.17 -947.36)"/><path d="M463.23,1064.55H448a11.8,11.8,0,0,1-11.78-11.79V960.15A11.8,11.8,0,0,1,448,948.36h15.28A11.8,11.8,0,0,1,475,960.15v92.61A11.8,11.8,0,0,1,463.23,1064.55ZM448,953.18a7,7,0,0,0-7,7v92.61a7,7,0,0,0,7,7h15.28a7,7,0,0,0,7-7V960.15a7,7,0,0,0-7-7Z" transform="translate(-435.17 -947.36)"/><path d="M463.23,1065.55H448a12.8,12.8,0,0,1-12.78-12.79V960.15A12.8,12.8,0,0,1,448,947.36h15.28A12.8,12.8,0,0,1,476,960.15v92.61A12.8,12.8,0,0,1,463.23,1065.55ZM448,949.36a10.8,10.8,0,0,0-10.78,10.79v92.61A10.8,10.8,0,0,0,448,1063.55h15.28A10.8,10.8,0,0,0,474,1052.76V960.15a10.8,10.8,0,0,0-10.78-10.79Zm15.28,111.37H448a8,8,0,0,1-8-8V960.15a8,8,0,0,1,8-8h15.28a8,8,0,0,1,8,8v92.61A8,8,0,0,1,463.23,1060.73ZM448,954.18a6,6,0,0,0-6,6v92.61a6,6,0,0,0,6,6h15.28a6,6,0,0,0,6-6V960.15a6,6,0,0,0-6-6Z" transform="translate(-435.17 -947.36)"/><path d="M535.72,991.05H486.84a2.41,2.41,0,0,1-2.41-2.41V972a2.41,2.41,0,0,1,2.41-2.41h48.88a2.4,2.4,0,0,1,2.4,2.41v16.65A2.4,2.4,0,0,1,535.72,991.05Zm-46.48-4.82h44.07V974.4H489.24Z" transform="translate(-435.17 -947.36)"/><path d="M535.72,992.05H486.84a3.41,3.41,0,0,1-3.41-3.41V972a3.41,3.41,0,0,1,3.41-3.41h48.88a3.41,3.41,0,0,1,3.4,3.41v16.65A3.41,3.41,0,0,1,535.72,992.05Zm-48.88-21.47a1.41,1.41,0,0,0-1.41,1.41v16.65a1.41,1.41,0,0,0,1.41,1.41h48.88a1.41,1.41,0,0,0,1.4-1.41V972a1.41,1.41,0,0,0-1.4-1.41Zm47.47,16.65H488.24V973.4h46.07Zm-44.07-2h42.07V975.4H490.24Z" transform="translate(-435.17 -947.36)"/><path d="M494.88,1008.06h-8a2.41,2.41,0,1,1,0-4.81h8a2.41,2.41,0,1,1,0,4.81Z" transform="translate(-435.17 -947.36)"/><path d="M494.88,1009.06h-8a3.41,3.41,0,1,1,0-6.81h8a3.41,3.41,0,1,1,0,6.81Zm-8-4.81a1.41,1.41,0,1,0,0,2.81h8a1.41,1.41,0,1,0,0-2.81Z" transform="translate(-435.17 -947.36)"/><path d="M515.3,1008.06h-8a2.41,2.41,0,0,1,0-4.81h8a2.41,2.41,0,1,1,0,4.81Z" transform="translate(-435.17 -947.36)"/><path d="M515.3,1009.06h-8a3.41,3.41,0,0,1,0-6.81h8a3.41,3.41,0,1,1,0,6.81Zm-8-4.81a1.41,1.41,0,0,0,0,2.81h8a1.41,1.41,0,1,0,0-2.81Z" transform="translate(-435.17 -947.36)"/><path d="M535.72,1008.06h-8.05a2.41,2.41,0,1,1,0-4.81h8.05a2.41,2.41,0,0,1,0,4.81Z" transform="translate(-435.17 -947.36)"/><path d="M535.72,1009.06h-8.05a3.41,3.41,0,1,1,0-6.81h8.05a3.41,3.41,0,0,1,0,6.81Zm-8.05-4.81a1.41,1.41,0,1,0,0,2.81h8.05a1.41,1.41,0,0,0,0-2.81Z" transform="translate(-435.17 -947.36)"/><path d="M494.88,1025.38h-8a2.41,2.41,0,1,1,0-4.81h8a2.41,2.41,0,1,1,0,4.81Z" transform="translate(-435.17 -947.36)"/><path d="M494.88,1026.38h-8a3.41,3.41,0,1,1,0-6.81h8a3.41,3.41,0,1,1,0,6.81Zm-8-4.81a1.41,1.41,0,1,0,0,2.81h8a1.41,1.41,0,1,0,0-2.81Z" transform="translate(-435.17 -947.36)"/><path d="M515.3,1025.38h-8a2.41,2.41,0,0,1,0-4.81h8a2.41,2.41,0,1,1,0,4.81Z" transform="translate(-435.17 -947.36)"/><path d="M515.3,1026.38h-8a3.41,3.41,0,0,1,0-6.81h8a3.41,3.41,0,1,1,0,6.81Zm-8-4.81a1.41,1.41,0,0,0,0,2.81h8a1.41,1.41,0,1,0,0-2.81Z" transform="translate(-435.17 -947.36)"/><path d="M535.72,1025.38h-8.05a2.41,2.41,0,1,1,0-4.81h8.05a2.41,2.41,0,0,1,0,4.81Z" transform="translate(-435.17 -947.36)"/><path d="M535.72,1026.38h-8.05a3.41,3.41,0,1,1,0-6.81h8.05a3.41,3.41,0,0,1,0,6.81Zm-8.05-4.81a1.41,1.41,0,1,0,0,2.81h8.05a1.41,1.41,0,0,0,0-2.81Z" transform="translate(-435.17 -947.36)"/><path d="M494.88,1042.71h-8a2.41,2.41,0,0,1,0-4.82h8a2.41,2.41,0,1,1,0,4.82Z" transform="translate(-435.17 -947.36)"/><path d="M494.88,1043.71h-8a3.41,3.41,0,0,1,0-6.82h8a3.41,3.41,0,1,1,0,6.82Zm-8-4.82a1.41,1.41,0,1,0,0,2.82h8a1.41,1.41,0,0,0,0-2.82Z" transform="translate(-435.17 -947.36)"/><path d="M515.3,1042.71h-8a2.41,2.41,0,0,1,0-4.82h8a2.41,2.41,0,1,1,0,4.82Z" transform="translate(-435.17 -947.36)"/><path d="M515.3,1043.71h-8a3.41,3.41,0,0,1,0-6.82h8a3.41,3.41,0,1,1,0,6.82Zm-8-4.82a1.41,1.41,0,0,0,0,2.82h8a1.41,1.41,0,0,0,0-2.82Z" transform="translate(-435.17 -947.36)"/><path d="M535.72,1042.71h-8.05a2.41,2.41,0,0,1,0-4.82h8.05a2.41,2.41,0,0,1,0,4.82Z" transform="translate(-435.17 -947.36)"/><path d="M535.72,1043.71h-8.05a3.41,3.41,0,0,1,0-6.82h8.05a3.41,3.41,0,0,1,0,6.82Zm-8.05-4.82a1.41,1.41,0,1,0,0,2.82h8.05a1.41,1.41,0,0,0,0-2.82Z" transform="translate(-435.17 -947.36)"/></svg>