<svg xmlns="http://www.w3.org/2000/svg" viewBox="0 0 517.45 485.55">
    <path class="hogget2-1" d="M-1068.06,687.26c-29.18,0-52.92,35.78-52.92,79.76a109.09,109.09,0,0,0,9,44.45l25.86,55.32h37.32v-.09c-.35.79,19.46-43.88,24.65-55.3,6-13.12,9-28.46,9-44.38C-1015.14,723-1038.88,687.26-1068.06,687.26Z" transform="translate(1389.39 -484.96)"/>
    <path class="hogget2-2" d="M-1121.87,739.79h-64.52v71.72l70.05,0A113.89,113.89,0,0,1-1125,767,119.61,119.61,0,0,1-1121.87,739.79Z" transform="translate(1389.39 -484.96)"/>
    <polygon class="hogget2-3" points="84.49 357.63 103.45 485.55 127.75 485.55 127.67 380.39 193.82 330.82 121.27 330.82 84.49 357.63"/>
    <polygon class="hogget2-4" points="310.75 485.55 335.05 485.55 340.4 385.82 303.58 385.82 310.75 485.55"/>
    <rect class="hogget2-5" x="123" y="254.82" width="76" height="72"/>
    <path class="hogget2-6" d="M-1047.1,661.48l-12.65,22.69a39,39,0,0,0-8.31-.9c-23.88,0-44.38,21.76-52.8,52.52h-65.53v-115h75.45A279.9,279.9,0,0,0-1047.1,661.48Z" transform="translate(1389.39 -484.96)"/>
    <polygon class="hogget2-7" points="123 250.82 199 250.82 199 135.82 102 135.82 123 199.94 123 250.82"/>
    <polygon class="hogget2-8" points="21.53 485.55 45.82 485.55 45.82 384.82 8.18 384.82 21.53 485.55"/>
    <path class="hogget2-9" d="M-1055.78,685.25c25.5,8.29,44.64,41.79,44.64,81.77a115.22,115.22,0,0,1-7.63,42c34.91-16.52,48.54-44.42,52.6-68.48l7.15-54.85a280.17,280.17,0,0,1-84.41-22.57Z" transform="translate(1389.39 -484.96)"/>
    <path class="hogget2-10" d="M-1343.57,865.34l73.18-52.85v-127l-21-64.75h-23a74.39,74.39,0,0,0-50.15,19.27c-15.53,14.11-24.85,33.73-24.85,54.73v13c0,8.94,8,17,17,17v63l-16.56,23.6,7.21,54.4h38.17Z" transform="translate(1389.39 -484.96)"/>
    <path class="hogget2-11" d="M-953.7,644.89a238.76,238.76,0,0,1-126.55-52.12l-25.44,27.15A275.91,275.91,0,0,0-958.5,681.71Z" transform="translate(1389.39 -484.96)"/>
    <path class="hogget2-12" d="M-881,543.15-929,503.57A81.58,81.58,0,0,0-955.46,489a81.93,81.93,0,0,0-24-4.07c-1.2,0-2.4,0-3.6,0l-63.8,1.68a66.28,66.28,0,0,0-6.68,5l14.74,20.89-26,38.51c-1.24,1.84-3.6,8.36-6.26,15.69-1.84,5.12-3.83,10.62-5.67,15.23a71.15,71.15,0,0,0,7.5,10.22,234.83,234.83,0,0,0,117.57,48.65l10.5-52.61,45.06-1.19a24.75,24.75,0,0,0,16.76-7.17A24.74,24.74,0,0,0-873,569.37,24.8,24.8,0,0,0-881,543.15Z" transform="translate(1389.39 -484.96)"/>
</svg>