<svg xmlns="http://www.w3.org/2000/svg" viewBox="0 0 402.29 333">
    <rect class="hogget1" x="98.68" y="62.86" width="23" height="107.23"/>
    <path class="hogget2" d="M-1692,1320.66h-22.9a69.64,69.64,0,0,0-45.38,16.81,69.69,69.69,0,0,0-24.3,52.87V1396a12.61,12.61,0,0,0,12.61,12.6v39.94l80,21Z" transform="translate(1784.68 -1257.81)"/>
    <polygon class="hogget3" points="67 242 84.59 332.55 102.47 332.55 102.47 252.09 150.65 218.09 97.7 218.09 67 242"/>
    <rect class="hogget4" x="127.68" y="62.86" width="39" height="107.23"/>
    <path class="hogget5" d="M-1612,1469.89h122.91c17.49-9.1,27.19-24.61,32.08-36h-155Z" transform="translate(1784.68 -1257.81)"/>
    <polygon class="hogget6" points="89.28 217.04 12.54 196.88 0 219.88 5.95 258.09 36.58 258.09 89.28 217.04"/>
    <polygon class="hogget7" points="244.91 333 263.42 333 269.24 264.09 240.83 264.09 244.91 333"/>
    <polygon class="hogget8" points="17.54 332.55 35.42 332.55 35.4 264.09 6.88 264.09 17.54 332.55"/>
    <rect class="hogget9" x="172.68" y="62.86" width="57" height="107.23"/>
    <polygon class="hogget10" points="240.19 258.09 270.2 258.09 290.25 218.09 225.08 218.09 240.19 258.09"/>
    <path class="hogget11" d="M-1388.54,1301.77l-34-29.51a59,59,0,0,0-38.67-14.45h-53.35l12.56,18.84-19.5,27.33a39.78,39.78,0,0,1-8.15,8.43,125.66,125.66,0,0,0,85.46,70.48l11.3-49.7h32.57a17.91,17.91,0,0,0,17-12.33A17.93,17.93,0,0,0-1388.54,1301.77Z" transform="translate(1784.68 -1257.81)"/>
    <rect class="hogget12" x="98.68" y="176.09" width="68" height="36"/>
    <path class="hogget13" d="M-1534.7,1315.72a39.68,39.68,0,0,1-14.3,4.64v107.53h94.29c.75-2.22,1.26-4.1,1.58-5.49l7.64-33.66A131.67,131.67,0,0,1-1534.7,1315.72Z" transform="translate(1784.68 -1257.81)"/>
</svg>