<svg xmlns="http://www.w3.org/2000/svg" viewBox="0 0 103.05 139.26"><path d="M1263.22,822.55c-7.81,0-11.54-6.26-12-7.06-.89-1.49-25.28-42.16-32.35-55.09a50.81,50.81,0,0,1,44.32-75.11h0a50.81,50.81,0,0,1,44.32,75.11c-7.06,12.93-31.45,53.59-32.35,55.09C1274.76,816.29,1271,822.55,1263.22,822.55Zm0-132.44a46,46,0,0,0-40.11,68c7.11,13,32.32,55,32.34,55.07a8.88,8.88,0,0,0,15.54,0s25.22-42,32.34-55.06a46,46,0,0,0-40.11-68Z" transform="translate(-1211.69 -684.29)"/><path d="M1263.22,823.55c-8.4,0-12.43-6.8-12.86-7.57-1-1.69-25.29-42.16-32.36-55.1a51.53,51.53,0,1,1,90.43,0c-7.17,13.12-32.12,54.71-32.37,55.12C1275.65,816.75,1271.63,823.55,1263.22,823.55Zm0-137.26a49.8,49.8,0,0,0-43.47,73.63c7,12.9,31.3,53.34,32.33,55.06.39.69,3.87,6.57,11.13,6.57s10.74-5.88,11.11-6.55c.27-.44,25.2-42,32.34-55.08a49.8,49.8,0,0,0-43.44-73.63Zm0,132.45a10.29,10.29,0,0,1-8.65-5.1l-.2-.33c-6-9.95-25.89-43.3-32.14-54.74a47,47,0,0,1,41-69.46h0a47,47,0,0,1,41,69.46c-6.7,12.27-29.67,50.63-32.27,55l-.08.13A10.27,10.27,0,0,1,1263.22,818.74Zm0-127.63a45,45,0,0,0-39.23,66.5c6.23,11.41,26.14,44.73,32.09,54.67l.25.41a7.88,7.88,0,0,0,13.79,0l.09-.17c2.6-4.33,25.55-42.66,32.24-54.89a45,45,0,0,0-39.23-66.5Z" transform="translate(-1211.69 -684.29)"/><path d="M1263.22,760.93a25.12,25.12,0,1,1,25.11-25.11A25.15,25.15,0,0,1,1263.22,760.93Zm0-45.41a20.3,20.3,0,1,0,20.29,20.3A20.32,20.32,0,0,0,1263.22,715.52Z" transform="translate(-1211.69 -684.29)"/><path d="M1263.22,761.93a26.12,26.12,0,1,1,26.11-26.11A26.15,26.15,0,0,1,1263.22,761.93Zm0-50.23a24.12,24.12,0,1,0,24.11,24.12A24.15,24.15,0,0,0,1263.22,711.7Zm0,45.41a21.3,21.3,0,1,1,21.29-21.29A21.32,21.32,0,0,1,1263.22,757.11Zm0-40.59a19.3,19.3,0,1,0,19.29,19.3A19.32,19.32,0,0,0,1263.22,716.52Z" transform="translate(-1211.69 -684.29)"/></svg>