<svg xmlns="http://www.w3.org/2000/svg" viewBox="0 0 94.33 132.04"><path d="M1294.26,563.39h-62.09a15.13,15.13,0,0,1-15.12-15.12v-99.8a15.13,15.13,0,0,1,15.12-15.11h62.09a15.13,15.13,0,0,1,15.12,15.11v99.8A15.13,15.13,0,0,1,1294.26,563.39Zm-62.09-125.22a10.31,10.31,0,0,0-10.3,10.3v99.8a10.32,10.32,0,0,0,10.3,10.31h62.09a10.33,10.33,0,0,0,10.31-10.31v-99.8a10.32,10.32,0,0,0-10.31-10.3Z" transform="translate(-1216.05 -432.36)"/><path d="M1294.26,564.39h-62.09a16.14,16.14,0,0,1-16.12-16.12v-99.8a16.13,16.13,0,0,1,16.12-16.11h62.09a16.13,16.13,0,0,1,16.12,16.11v99.8A16.14,16.14,0,0,1,1294.26,564.39Zm-62.09-130a14.13,14.13,0,0,0-14.12,14.11v99.8a14.14,14.14,0,0,0,14.12,14.12h62.09a14.13,14.13,0,0,0,14.12-14.12v-99.8a14.13,14.13,0,0,0-14.12-14.11Zm62.09,125.22h-62.09a11.32,11.32,0,0,1-11.3-11.31v-99.8a11.31,11.31,0,0,1,11.3-11.3h62.09a11.32,11.32,0,0,1,11.31,11.3v99.8A11.32,11.32,0,0,1,1294.26,559.58Zm-62.09-120.41a9.31,9.31,0,0,0-9.3,9.3v99.8a9.32,9.32,0,0,0,9.3,9.31h62.09a9.33,9.33,0,0,0,9.31-9.31v-99.8a9.32,9.32,0,0,0-9.31-9.3Z" transform="translate(-1216.05 -432.36)"/><path d="M1292.53,534.5h-58.62a2.41,2.41,0,0,1-2.41-2.41V450.21a2.4,2.4,0,0,1,2.41-2.4h58.62a2.4,2.4,0,0,1,2.4,2.4v81.88A2.41,2.41,0,0,1,1292.53,534.5Zm-56.21-4.82h53.8V452.62h-53.8Z" transform="translate(-1216.05 -432.36)"/><path d="M1292.53,535.5h-58.62a3.41,3.41,0,0,1-3.41-3.41V450.21a3.41,3.41,0,0,1,3.41-3.4h58.62a3.4,3.4,0,0,1,3.4,3.4v81.88A3.41,3.41,0,0,1,1292.53,535.5Zm-58.62-86.69a1.41,1.41,0,0,0-1.41,1.4v81.88a1.41,1.41,0,0,0,1.41,1.41h58.62a1.41,1.41,0,0,0,1.4-1.41V450.21a1.4,1.4,0,0,0-1.4-1.4Zm57.21,81.87h-55.8V451.62h55.8Zm-53.8-2h51.8V453.62h-51.8Z" transform="translate(-1216.05 -432.36)"/><path d="M1268.76,548.94h-11.09a2.41,2.41,0,0,1,0-4.81h11.09a2.41,2.41,0,1,1,0,4.81Z" transform="translate(-1216.05 -432.36)"/><path d="M1268.76,549.94h-11.09a3.41,3.41,0,0,1,0-6.81h11.09a3.41,3.41,0,1,1,0,6.81Zm-11.09-4.81a1.41,1.41,0,0,0,0,2.81h11.09a1.41,1.41,0,1,0,0-2.81Z" transform="translate(-1216.05 -432.36)"/><path d="M1252.16,489.94a2.41,2.41,0,0,1-1.15-4.53l22.12-12a2.41,2.41,0,1,1,2.3,4.23l-22.13,12A2.34,2.34,0,0,1,1252.16,489.94Z" transform="translate(-1216.05 -432.36)"/><path d="M1252.16,490.94a3.42,3.42,0,0,1-3-1.79,3.41,3.41,0,0,1,1.37-4.62l22.12-12a3.41,3.41,0,0,1,2.6-.27,3.41,3.41,0,0,1,.66,6.26l-22.13,12A3.43,3.43,0,0,1,1252.16,490.94Zm22.12-16.84a1.45,1.45,0,0,0-.67.17l-22.13,12a1.41,1.41,0,0,0,1.35,2.47l22.12-12a1.42,1.42,0,0,0,.68-.84,1.38,1.38,0,0,0-.11-1.07,1.42,1.42,0,0,0-.84-.68A1.39,1.39,0,0,0,1274.28,474.1Z" transform="translate(-1216.05 -432.36)"/><path d="M1252.16,509.2a2.41,2.41,0,0,1-1.15-4.52l22.12-12a2.41,2.41,0,1,1,2.3,4.23l-22.13,12A2.33,2.33,0,0,1,1252.16,509.2Z" transform="translate(-1216.05 -432.36)"/><path d="M1252.16,510.2a3.41,3.41,0,0,1-1.63-6.4l22.12-12a3.41,3.41,0,0,1,4.62,1.37,3.41,3.41,0,0,1-1.36,4.62l-22.13,12A3.42,3.42,0,0,1,1252.16,510.2Zm22.12-16.84a1.35,1.35,0,0,0-.67.18l-22.13,12a1.41,1.41,0,0,0-.56,1.91,1.44,1.44,0,0,0,1.91.57L1275,496a1.41,1.41,0,0,0-.27-2.59A1.39,1.39,0,0,0,1274.28,493.36Z" transform="translate(-1216.05 -432.36)"/></svg>