<svg xmlns="http://www.w3.org/2000/svg" viewBox="0 0 121.18 121.18"><path d="M-303,527.34a32.57,32.57,0,0,1-23.09-9.55l-54-54a32.68,32.68,0,0,1,0-46.18l7.72-7.73a6,6,0,0,1,4.25-1.76,6,6,0,0,1,4.25,1.76l22.36,22.37a5.93,5.93,0,0,1,1.76,4.25,6,6,0,0,1-1.76,4.25l-9.63,9.63a6.23,6.23,0,0,0,0,8.81l29.61,29.61a6.25,6.25,0,0,0,8.82,0l9.63-9.63a6,6,0,0,1,8.49,0l22.37,22.37a6,6,0,0,1,0,8.49l-7.72,7.73A32.59,32.59,0,0,1-303,527.34ZM-368.11,413a1.18,1.18,0,0,0-.84.35l-7.73,7.72a27.88,27.88,0,0,0,0,39.37l54,54A27.62,27.62,0,0,0-303,522.54a27.66,27.66,0,0,0,19.68-8.16l7.73-7.72a1.21,1.21,0,0,0,0-1.69L-298,482.61a1.19,1.19,0,0,0-1.69,0l-9.63,9.63a11.05,11.05,0,0,1-15.62,0l-29.61-29.61a11.06,11.06,0,0,1,0-15.63l9.63-9.63a1.2,1.2,0,0,0,0-1.68l-22.37-22.37A1.2,1.2,0,0,0-368.11,413Z" transform="translate(390.63 -407.15)"/><path d="M-303,528.34a33.46,33.46,0,0,1-23.8-9.84l-54-54a33.69,33.69,0,0,1,0-47.59l7.72-7.72a7,7,0,0,1,5-2.06,6.93,6.93,0,0,1,4.95,2.06l22.37,22.36a7,7,0,0,1,2.05,5,7,7,0,0,1-2.05,5l-9.63,9.63a5.25,5.25,0,0,0,0,7.41l29.61,29.6a5.19,5.19,0,0,0,3.7,1.53,5.19,5.19,0,0,0,3.7-1.53l9.63-9.63a7,7,0,0,1,9.91,0l22.37,22.37a7,7,0,0,1,2.05,5,7,7,0,0,1-2.05,4.95l-7.73,7.73A33.42,33.42,0,0,1-303,528.34Zm-65.09-119.19a4.94,4.94,0,0,0-3.54,1.47l-7.73,7.72a31.7,31.7,0,0,0,0,44.77l54,54A31.41,31.41,0,0,0-303,526.34a31.44,31.44,0,0,0,22.38-9.26l7.72-7.72a5,5,0,0,0,1.47-3.54,5,5,0,0,0-1.47-3.55l-22.36-22.36a5,5,0,0,0-7.09,0l-9.63,9.63a7.19,7.19,0,0,1-5.11,2.11,7.19,7.19,0,0,1-5.11-2.11l-29.61-29.61a7.18,7.18,0,0,1-2.12-5.12,7.15,7.15,0,0,1,2.12-5.11l9.63-9.63a5,5,0,0,0,1.46-3.54A5,5,0,0,0-342.2,433l-22.37-22.37A5,5,0,0,0-368.11,409.15ZM-303,523.54a28.63,28.63,0,0,1-20.39-8.45l-54-54a28.87,28.87,0,0,1,0-40.78l7.73-7.73a2.24,2.24,0,0,1,3.1,0L-344.19,435a2.18,2.18,0,0,1,.64,1.55,2.2,2.2,0,0,1-.64,1.55l-9.64,9.63a10.07,10.07,0,0,0,0,14.21l29.61,29.61a10,10,0,0,0,7.11,2.94,10,10,0,0,0,7.11-2.94l9.63-9.63a2.24,2.24,0,0,1,3.1,0l22.36,22.37a2.14,2.14,0,0,1,.64,1.55,2.17,2.17,0,0,1-.64,1.55l-7.72,7.72A28.65,28.65,0,0,1-303,523.54ZM-368.11,414a.19.19,0,0,0-.14.06l-7.72,7.72a26.87,26.87,0,0,0,0,37.95l54,54a26.66,26.66,0,0,0,19,7.86,26.62,26.62,0,0,0,19-7.86l7.73-7.73a.2.2,0,0,0,.05-.13.22.22,0,0,0-.05-.14l-22.37-22.37a.17.17,0,0,0-.27,0l-9.63,9.63a11.94,11.94,0,0,1-8.52,3.53,11.94,11.94,0,0,1-8.52-3.53l-29.61-29.61a12.06,12.06,0,0,1,0-17l9.63-9.63a.2.2,0,0,0,0-.27L-368,414A.17.17,0,0,0-368.11,414Z" transform="translate(390.63 -407.15)"/><path d="M-272.86,459.83a2.41,2.41,0,0,1-2.41-2.41A44.49,44.49,0,0,0-319.71,413a2.41,2.41,0,0,1-2.41-2.41,2.41,2.41,0,0,1,2.41-2.41,49.32,49.32,0,0,1,49.26,49.27A2.41,2.41,0,0,1-272.86,459.83Z" transform="translate(390.63 -407.15)"/><path d="M-272.86,460.83a3.41,3.41,0,0,1-3.41-3.41A43.5,43.5,0,0,0-319.71,414a3.41,3.41,0,0,1-3.41-3.41,3.41,3.41,0,0,1,3.41-3.41,50.32,50.32,0,0,1,50.26,50.27A3.41,3.41,0,0,1-272.86,460.83Zm-46.85-51.68a1.41,1.41,0,0,0-1.41,1.41,1.41,1.41,0,0,0,1.41,1.41,45.49,45.49,0,0,1,45.44,45.45,1.42,1.42,0,0,0,1.41,1.41,1.41,1.41,0,0,0,1.41-1.41A48.32,48.32,0,0,0-319.71,409.15Z" transform="translate(390.63 -407.15)"/><path d="M-289.56,459.83a2.4,2.4,0,0,1-2.4-2.41,27.78,27.78,0,0,0-27.75-27.75,2.41,2.41,0,0,1-2.41-2.41,2.41,2.41,0,0,1,2.41-2.41,32.6,32.6,0,0,1,32.56,32.57A2.41,2.41,0,0,1-289.56,459.83Z" transform="translate(390.63 -407.15)"/><path d="M-289.56,460.83a3.41,3.41,0,0,1-3.4-3.41,26.78,26.78,0,0,0-26.75-26.75,3.41,3.41,0,0,1-3.41-3.41,3.41,3.41,0,0,1,3.41-3.41,33.61,33.61,0,0,1,33.56,33.57A3.41,3.41,0,0,1-289.56,460.83Zm-30.15-35a1.41,1.41,0,0,0-1.41,1.41,1.41,1.41,0,0,0,1.41,1.41A28.79,28.79,0,0,1-291,457.42a1.41,1.41,0,0,0,1.4,1.41,1.41,1.41,0,0,0,1.41-1.41A31.6,31.6,0,0,0-319.71,425.85Z" transform="translate(390.63 -407.15)"/><path d="M-306.25,459.83a2.41,2.41,0,0,1-2.41-2.41,11.06,11.06,0,0,0-11-11.05,2.41,2.41,0,0,1-2.41-2.41,2.41,2.41,0,0,1,2.41-2.41,15.88,15.88,0,0,1,15.86,15.87A2.4,2.4,0,0,1-306.25,459.83Z" transform="translate(390.63 -407.15)"/><path d="M-306.25,460.83a3.41,3.41,0,0,1-3.41-3.41,10.06,10.06,0,0,0-10-10.05,3.41,3.41,0,0,1-3.41-3.41,3.41,3.41,0,0,1,3.41-3.41,16.88,16.88,0,0,1,16.86,16.87A3.41,3.41,0,0,1-306.25,460.83Zm-13.46-18.28a1.41,1.41,0,0,0-1.41,1.41,1.41,1.41,0,0,0,1.41,1.41,12.06,12.06,0,0,1,12,12.05,1.41,1.41,0,0,0,1.41,1.41,1.41,1.41,0,0,0,1.4-1.41A14.88,14.88,0,0,0-319.71,442.55Z" transform="translate(390.63 -407.15)"/></svg>