<svg xmlns="http://www.w3.org/2000/svg" viewBox="0 0 10.15 11.64"><path d="M11.05,3.35l-1.52.87V2.74a.26.26,0,0,0-.26-.25A.25.25,0,0,0,9,2.74V4.51L6.6,5.91V3.12l1.54-.89a.26.26,0,0,0,.09-.35.25.25,0,0,0-.34-.09h0L6.6,2.53V.78a.25.25,0,0,0-.5,0V2.53L4.81,1.79a.25.25,0,0,0-.34.09.26.26,0,0,0,.09.35h0l1.54.89V5.91L3.68,4.51V2.74a.26.26,0,0,0-.26-.25.25.25,0,0,0-.25.25V4.22L1.65,3.35a.25.25,0,0,0-.25.43l1.52.88L1.63,5.4a.26.26,0,1,0,.26.44L3.42,5l2.42,1.4L3.42,7.75,1.89,6.86a.26.26,0,1,0-.26.44L2.92,8,1.4,8.92a.25.25,0,0,0,.25.43l1.52-.87V10a.26.26,0,0,0,.51,0V8.19L6.1,6.79V9.58l-1.54.89a.26.26,0,0,0-.09.35.25.25,0,0,0,.34.09h0l1.29-.74v1.75a.25.25,0,0,0,.5,0V10.17l1.29.74a.25.25,0,0,0,.34-.09.26.26,0,0,0-.09-.35h0L6.6,9.58V6.79L9,8.19V10a.26.26,0,0,0,.26.25A.25.25,0,0,0,9.53,10V8.48l1.52.87a.25.25,0,1,0,.25-.43L9.78,8l1.29-.74a.26.26,0,0,0-.26-.44l-1.54.89L6.86,6.35,9.27,5l1.54.89a.26.26,0,1,0,.26-.44L9.78,4.66l1.52-.88a.25.25,0,0,0-.25-.43Z" transform="translate(-1.27 -0.53)"/></svg>